// === Articulação: Racktom2_Center ===

// --- Mic: Overhead_L ---
<group> seq_position=1 output=7 pan=-100 // Round-Robin: A
<region> sample=Racktom2_Center_A_vel01_mic-Overhead_L.wav lovel=0 hivel=9
<region> sample=Racktom2_Center_A_vel02_mic-Overhead_L.wav lovel=10 hivel=19
<region> sample=Racktom2_Center_A_vel03_mic-Overhead_L.wav lovel=20 hivel=29
<region> sample=Racktom2_Center_A_vel04_mic-Overhead_L.wav lovel=30 hivel=39
<region> sample=Racktom2_Center_A_vel05_mic-Overhead_L.wav lovel=40 hivel=49
<region> sample=Racktom2_Center_A_vel06_mic-Overhead_L.wav lovel=50 hivel=59
<region> sample=Racktom2_Center_A_vel07_mic-Overhead_L.wav lovel=60 hivel=69
<region> sample=Racktom2_Center_A_vel08_mic-Overhead_L.wav lovel=70 hivel=79
<region> sample=Racktom2_Center_A_vel09_mic-Overhead_L.wav lovel=80 hivel=89
<region> sample=Racktom2_Center_A_vel10_mic-Overhead_L.wav lovel=90 hivel=99
<region> sample=Racktom2_Center_A_vel11_mic-Overhead_L.wav lovel=100 hivel=109
<region> sample=Racktom2_Center_A_vel12_mic-Overhead_L.wav lovel=110 hivel=127
<group> seq_position=2 output=7 pan=-100 // Round-Robin: B
<region> sample=Racktom2_Center_B_vel01_mic-Overhead_L.wav lovel=0 hivel=9
<region> sample=Racktom2_Center_B_vel02_mic-Overhead_L.wav lovel=10 hivel=19
<region> sample=Racktom2_Center_B_vel03_mic-Overhead_L.wav lovel=20 hivel=29
<region> sample=Racktom2_Center_B_vel04_mic-Overhead_L.wav lovel=30 hivel=39
<region> sample=Racktom2_Center_B_vel05_mic-Overhead_L.wav lovel=40 hivel=49
<region> sample=Racktom2_Center_B_vel06_mic-Overhead_L.wav lovel=50 hivel=59
<region> sample=Racktom2_Center_B_vel07_mic-Overhead_L.wav lovel=60 hivel=69
<region> sample=Racktom2_Center_B_vel08_mic-Overhead_L.wav lovel=70 hivel=79
<region> sample=Racktom2_Center_B_vel09_mic-Overhead_L.wav lovel=80 hivel=89
<region> sample=Racktom2_Center_B_vel10_mic-Overhead_L.wav lovel=90 hivel=99
<region> sample=Racktom2_Center_B_vel11_mic-Overhead_L.wav lovel=100 hivel=109
<region> sample=Racktom2_Center_B_vel12_mic-Overhead_L.wav lovel=110 hivel=127

// --- Mic: Overhead_R ---
<group> seq_position=1 output=7 pan=100 // Round-Robin: A
<region> sample=Racktom2_Center_A_vel01_mic-Overhead_R.wav lovel=0 hivel=9
<region> sample=Racktom2_Center_A_vel02_mic-Overhead_R.wav lovel=10 hivel=19
<region> sample=Racktom2_Center_A_vel03_mic-Overhead_R.wav lovel=20 hivel=29
<region> sample=Racktom2_Center_A_vel04_mic-Overhead_R.wav lovel=30 hivel=39
<region> sample=Racktom2_Center_A_vel05_mic-Overhead_R.wav lovel=40 hivel=49
<region> sample=Racktom2_Center_A_vel06_mic-Overhead_R.wav lovel=50 hivel=59
<region> sample=Racktom2_Center_A_vel07_mic-Overhead_R.wav lovel=60 hivel=69
<region> sample=Racktom2_Center_A_vel08_mic-Overhead_R.wav lovel=70 hivel=79
<region> sample=Racktom2_Center_A_vel09_mic-Overhead_R.wav lovel=80 hivel=89
<region> sample=Racktom2_Center_A_vel10_mic-Overhead_R.wav lovel=90 hivel=99
<region> sample=Racktom2_Center_A_vel11_mic-Overhead_R.wav lovel=100 hivel=109
<region> sample=Racktom2_Center_A_vel12_mic-Overhead_R.wav lovel=110 hivel=127
<group> seq_position=2 output=7 pan=100 // Round-Robin: B
<region> sample=Racktom2_Center_B_vel01_mic-Overhead_R.wav lovel=0 hivel=9
<region> sample=Racktom2_Center_B_vel02_mic-Overhead_R.wav lovel=10 hivel=19
<region> sample=Racktom2_Center_B_vel03_mic-Overhead_R.wav lovel=20 hivel=29
<region> sample=Racktom2_Center_B_vel04_mic-Overhead_R.wav lovel=30 hivel=39
<region> sample=Racktom2_Center_B_vel05_mic-Overhead_R.wav lovel=40 hivel=49
<region> sample=Racktom2_Center_B_vel06_mic-Overhead_R.wav lovel=50 hivel=59
<region> sample=Racktom2_Center_B_vel07_mic-Overhead_R.wav lovel=60 hivel=69
<region> sample=Racktom2_Center_B_vel08_mic-Overhead_R.wav lovel=70 hivel=79
<region> sample=Racktom2_Center_B_vel09_mic-Overhead_R.wav lovel=80 hivel=89
<region> sample=Racktom2_Center_B_vel10_mic-Overhead_R.wav lovel=90 hivel=99
<region> sample=Racktom2_Center_B_vel11_mic-Overhead_R.wav lovel=100 hivel=109
<region> sample=Racktom2_Center_B_vel12_mic-Overhead_R.wav lovel=110 hivel=127

// --- Mic: Racktom_2 ---
<group> seq_position=1 // Round-Robin: A
<region> sample=Racktom2_Center_A_vel01_mic-Racktom_2.wav lovel=0 hivel=9
<region> sample=Racktom2_Center_A_vel02_mic-Racktom_2.wav lovel=10 hivel=19
<region> sample=Racktom2_Center_A_vel03_mic-Racktom_2.wav lovel=20 hivel=29
<region> sample=Racktom2_Center_A_vel04_mic-Racktom_2.wav lovel=30 hivel=39
<region> sample=Racktom2_Center_A_vel05_mic-Racktom_2.wav lovel=40 hivel=49
<region> sample=Racktom2_Center_A_vel06_mic-Racktom_2.wav lovel=50 hivel=59
<region> sample=Racktom2_Center_A_vel07_mic-Racktom_2.wav lovel=60 hivel=69
<region> sample=Racktom2_Center_A_vel08_mic-Racktom_2.wav lovel=70 hivel=79
<region> sample=Racktom2_Center_A_vel09_mic-Racktom_2.wav lovel=80 hivel=89
<region> sample=Racktom2_Center_A_vel10_mic-Racktom_2.wav lovel=90 hivel=99
<region> sample=Racktom2_Center_A_vel11_mic-Racktom_2.wav lovel=100 hivel=109
<region> sample=Racktom2_Center_A_vel12_mic-Racktom_2.wav lovel=110 hivel=127
<group> seq_position=2 // Round-Robin: B
<region> sample=Racktom2_Center_B_vel01_mic-Racktom_2.wav lovel=0 hivel=9
<region> sample=Racktom2_Center_B_vel02_mic-Racktom_2.wav lovel=10 hivel=19
<region> sample=Racktom2_Center_B_vel03_mic-Racktom_2.wav lovel=20 hivel=29
<region> sample=Racktom2_Center_B_vel04_mic-Racktom_2.wav lovel=30 hivel=39
<region> sample=Racktom2_Center_B_vel05_mic-Racktom_2.wav lovel=40 hivel=49
<region> sample=Racktom2_Center_B_vel06_mic-Racktom_2.wav lovel=50 hivel=59
<region> sample=Racktom2_Center_B_vel07_mic-Racktom_2.wav lovel=60 hivel=69
<region> sample=Racktom2_Center_B_vel08_mic-Racktom_2.wav lovel=70 hivel=79
<region> sample=Racktom2_Center_B_vel09_mic-Racktom_2.wav lovel=80 hivel=89
<region> sample=Racktom2_Center_B_vel10_mic-Racktom_2.wav lovel=90 hivel=99
<region> sample=Racktom2_Center_B_vel11_mic-Racktom_2.wav lovel=100 hivel=109
<region> sample=Racktom2_Center_B_vel12_mic-Racktom_2.wav lovel=110 hivel=127

// --- Mic: Snare_Bottom ---
<group> seq_position=1 // Round-Robin: A
<region> sample=Racktom2_Center_A_vel01_mic-Snare_Bottom.wav lovel=0 hivel=9
<region> sample=Racktom2_Center_A_vel02_mic-Snare_Bottom.wav lovel=10 hivel=19
<region> sample=Racktom2_Center_A_vel03_mic-Snare_Bottom.wav lovel=20 hivel=29
<region> sample=Racktom2_Center_A_vel04_mic-Snare_Bottom.wav lovel=30 hivel=39
<region> sample=Racktom2_Center_A_vel05_mic-Snare_Bottom.wav lovel=40 hivel=49
<region> sample=Racktom2_Center_A_vel06_mic-Snare_Bottom.wav lovel=50 hivel=59
<region> sample=Racktom2_Center_A_vel07_mic-Snare_Bottom.wav lovel=60 hivel=69
<region> sample=Racktom2_Center_A_vel08_mic-Snare_Bottom.wav lovel=70 hivel=79
<region> sample=Racktom2_Center_A_vel09_mic-Snare_Bottom.wav lovel=80 hivel=89
<region> sample=Racktom2_Center_A_vel10_mic-Snare_Bottom.wav lovel=90 hivel=99
<region> sample=Racktom2_Center_A_vel11_mic-Snare_Bottom.wav lovel=100 hivel=109
<region> sample=Racktom2_Center_A_vel12_mic-Snare_Bottom.wav lovel=110 hivel=127
<group> seq_position=2 // Round-Robin: B
<region> sample=Racktom2_Center_B_vel01_mic-Snare_Bottom.wav lovel=0 hivel=9
<region> sample=Racktom2_Center_B_vel02_mic-Snare_Bottom.wav lovel=10 hivel=19
<region> sample=Racktom2_Center_B_vel03_mic-Snare_Bottom.wav lovel=20 hivel=29
<region> sample=Racktom2_Center_B_vel04_mic-Snare_Bottom.wav lovel=30 hivel=39
<region> sample=Racktom2_Center_B_vel05_mic-Snare_Bottom.wav lovel=40 hivel=49
<region> sample=Racktom2_Center_B_vel06_mic-Snare_Bottom.wav lovel=50 hivel=59
<region> sample=Racktom2_Center_B_vel07_mic-Snare_Bottom.wav lovel=60 hivel=69
<region> sample=Racktom2_Center_B_vel08_mic-Snare_Bottom.wav lovel=70 hivel=79
<region> sample=Racktom2_Center_B_vel09_mic-Snare_Bottom.wav lovel=80 hivel=89
<region> sample=Racktom2_Center_B_vel10_mic-Snare_Bottom.wav lovel=90 hivel=99
<region> sample=Racktom2_Center_B_vel11_mic-Snare_Bottom.wav lovel=100 hivel=109
<region> sample=Racktom2_Center_B_vel12_mic-Snare_Bottom.wav lovel=110 hivel=127
